<svg width="125" height="96" viewBox="0 0 154 119" fill="none" xmlns="http://www.w3.org/2000/svg">
<rect width="154" height="119" fill="#EFEFEF"/>
<path fill-rule="evenodd" clip-rule="evenodd" d="M77.5 103C101.524 103 121 83.5244 121 59.5C121 35.4756 101.524 16 77.5 16C53.4756 16 34 35.4756 34 59.5C34 83.5244 53.4756 103 77.5 103Z" fill="url(#paint0_linear_26_993)"/>
<path fill-rule="evenodd" clip-rule="evenodd" d="M77.5 100C99.8675 100 118 81.8675 118 59.5C118 37.1325 99.8675 19 77.5 19C55.1325 19 37 37.1325 37 59.5C37 81.8675 55.1325 100 77.5 100Z" fill="#1B1F23"/>
<path d="M117.542 59.2209C117.542 69.4764 113.634 79.3465 106.614 86.8224L77.2209 59.2209H117.542Z" fill="#2F363D"/>
<path d="M36.9 59.2209C36.9 48.9654 40.8079 39.0953 47.8283 31.6193L77.2209 59.2209L36.9 59.2209Z" fill="#2F363D"/>
<path fill-rule="evenodd" clip-rule="evenodd" d="M77.313 77.2511C87.2199 77.2511 95.2511 69.2199 95.2511 59.313C95.2511 49.4061 87.2199 41.375 77.313 41.375C67.4061 41.375 59.375 49.4061 59.375 59.313C59.375 69.2199 67.4061 77.2511 77.313 77.2511Z" fill="#FAFAFA"/>
<path fill-rule="evenodd" clip-rule="evenodd" d="M73.2485 52.4094C73.2169 52.378 71.3481 53.0784 69.841 53.8944C69.6454 54.0003 69.5341 54.0559 69.3925 54.1266C69.1914 54.2271 68.9292 54.3581 68.2774 54.7072C67.1664 55.3021 66.1725 55.8568 66.1725 55.8568C66.1725 55.8568 65.659 56.0657 65.2974 55.517C64.9357 54.9684 65.4912 54.5608 65.4912 54.5608C65.4912 54.5608 72.1905 50.7847 73.4768 50.9113C73.485 50.9121 73.4932 50.9129 73.5014 50.9137C73.8671 50.9493 74.2022 50.9819 74.628 51.8411C74.8604 52.3101 74.73 53.0392 74.4704 53.8079C74.2108 54.5766 73.1531 56.3034 73.1531 56.3034C73.1531 56.3034 75.0674 55.5542 76.1472 55.9716C76.621 56.1548 77.4299 56.4766 77.8669 57.8744C78.3813 59.5201 77.9891 61.2391 77.9891 61.2391C77.9891 61.2391 78.8044 60.9742 79.3049 60.373C79.9577 59.6768 80.4027 59.0348 80.4027 59.0348L79.719 53.0453C79.719 53.0453 78.937 53.7864 77.8579 53.8141C77.795 53.8157 77.1555 53.7161 77.1376 53.1356C77.1198 52.5552 77.6059 52.3592 77.705 52.3592C77.8042 52.3592 78.4025 52.2671 78.7092 51.9653C79.016 51.6634 79.2284 51.2301 79.2485 50.8557C79.2687 50.4814 79.4789 50.0212 80.0317 50.0212C80.5347 50.0212 80.7278 50.5033 80.7615 50.5874C80.7641 50.5939 80.7657 50.598 80.7665 50.5994C80.9811 50.9755 81.4711 55.3775 81.4711 55.3775C81.4711 55.3775 82.7446 53.9712 82.9771 53.5545C83.8971 51.9052 84.1024 50.967 84.2227 50.4172C84.2677 50.2115 84.3009 50.0602 84.355 49.9463C84.5541 49.5279 84.8255 49.4109 85.1436 49.4501C85.7096 49.5198 85.8102 50.1086 85.7875 50.2757C85.7155 50.8065 84.9536 53.5227 83.7803 54.9523C82.6348 56.3483 82.2102 56.6988 82.2102 56.6988C82.2102 56.6988 84.1745 58.7134 85.3996 59.7588C86.326 60.5495 87.6662 60.607 87.9954 60.6211C88.0216 60.6223 88.0414 60.6231 88.0541 60.624C88.277 60.6403 88.6758 60.607 88.9788 60.5816C89.0941 60.572 89.1956 60.5635 89.2682 60.5593C89.5316 60.5443 89.9115 60.8598 89.9115 61.2466C89.9115 61.8467 89.4157 61.9825 89.4157 61.9825C89.4157 61.9825 88.821 62.1453 88.019 62.0966C87.2169 62.0478 86.0646 61.8844 85.2206 61.3893C84.3766 60.8942 84.047 60.5899 83.2302 59.7588C82.4134 58.9278 82.1919 58.7355 82.1919 58.7355C82.1919 58.7355 82.2048 58.8513 82.1519 58.9677C82.0116 59.2763 81.9135 59.3934 81.9135 59.3934L82.6633 66.9547C82.6633 66.9547 82.6633 67.6913 81.9943 67.7298C81.3253 67.7683 81.2102 67.1204 81.2102 67.1204L80.6255 61.1372C80.6255 61.1372 79.479 62.3847 78.43 62.6211C77.9152 62.7371 77.5929 62.7138 77.5929 62.7138C77.5929 62.7138 76.926 64.5934 75.9386 65.9203C74.9512 67.2472 73.484 68.9349 71.5005 69.5433C69.7518 70.0798 68.8433 69.8523 67.9296 69.2865C67.3168 68.9071 66.6831 67.7298 66.6412 66.7118C66.5994 65.6938 66.8281 64.5377 67.5739 63.3643C68.3197 62.1909 69.2404 61.7044 70.2044 61.4389C71.1685 61.1734 72.4026 61.0432 73.8378 61.0699C75.2729 61.0965 76.478 61.2084 76.478 61.2084C76.478 61.2084 77.0997 58.5652 75.981 57.5046C75.3654 56.921 73.08 57.8666 73.08 57.8666C73.08 57.8666 72.2589 58.2771 71.6725 58.0161C70.8879 57.667 71.2221 56.8098 71.2221 56.8098C71.2221 56.8098 71.5554 55.9892 71.9855 55.3775C72.4157 54.7658 72.9311 53.7007 73.1113 53.2751C73.2916 52.8494 73.3011 52.4612 73.2485 52.4094ZM73.3422 66.6853C71.3358 68.5481 69.6711 68.5543 68.8643 68.1349C68.0575 67.7155 67.9255 66.183 68.3861 64.9422C68.8468 63.7013 69.815 62.8301 71.6214 62.6259C73.4279 62.4216 76.049 62.622 76.049 62.622C76.049 62.622 75.3485 64.8225 73.3422 66.6853Z" fill="#1B1F23"/>
<defs>
<linearGradient id="paint0_linear_26_993" x1="77.5" y1="16" x2="77.5" y2="103" gradientUnits="userSpaceOnUse">
<stop stop-color="#BCABFF"/>
<stop offset="1" stop-color="#C7B9FF"/>
</linearGradient>
</defs>
</svg>
