<svg width="125" height="96" viewBox="0 0 154 119" fill="none" xmlns="http://www.w3.org/2000/svg">
<rect width="154" height="119" fill="#EFEFEF"/>
<g filter="url(#filter0_d_26_992)">
<ellipse cx="62.3241" cy="39.2764" rx="12.1828" ry="13.7056" transform="rotate(20 62.3241 39.2764)" fill="#5551FF"/>
<ellipse cx="62.3241" cy="39.2764" rx="12.1828" ry="13.7056" transform="rotate(20 62.3241 39.2764)" fill="url(#paint0_linear_26_992)" style="mix-blend-mode:soft-light"/>
<ellipse cx="62.3241" cy="39.2764" rx="12.1828" ry="13.7056" transform="rotate(20 62.3241 39.2764)" stroke="black" stroke-width="2"/>
</g>
<g filter="url(#filter1_d_26_992)">
<ellipse cx="80.9273" cy="44.5245" rx="12.1828" ry="13.7056" transform="rotate(20 80.9273 44.5245)" fill="#5551FF"/>
<ellipse cx="80.9273" cy="44.5245" rx="12.1828" ry="13.7056" transform="rotate(20 80.9273 44.5245)" fill="url(#paint1_linear_26_992)" style="mix-blend-mode:soft-light"/>
<ellipse cx="80.9273" cy="44.5245" rx="12.1828" ry="13.7056" transform="rotate(20 80.9273 44.5245)" stroke="black"/>
</g>
<g opacity="0.6" filter="url(#filter2_f_26_992)">
<circle cx="80.0831" cy="40.1657" r="3.80712" transform="rotate(20 80.0831 40.1657)" fill="white"/>
<circle cx="80.0831" cy="40.1657" r="3.80712" transform="rotate(20 80.0831 40.1657)" stroke="black"/>
</g>
<g filter="url(#filter3_d_26_992)">
<ellipse cx="99.5304" cy="54.3412" rx="12.1828" ry="13.7056" transform="rotate(20 99.5304 54.3412)" fill="#5551FF"/>
<ellipse cx="99.5304" cy="54.3412" rx="12.1828" ry="13.7056" transform="rotate(20 99.5304 54.3412)" fill="url(#paint2_linear_26_992)" style="mix-blend-mode:soft-light"/>
<ellipse cx="99.5304" cy="54.3412" rx="12.1828" ry="13.7056" transform="rotate(20 99.5304 54.3412)" stroke="black" stroke-width="2"/>
</g>
<g opacity="0.6" filter="url(#filter4_f_26_992)">
<circle cx="98.6861" cy="49.9824" r="3.80712" transform="rotate(20 98.6861 49.9824)" fill="white"/>
<circle cx="98.6861" cy="49.9824" r="3.80712" transform="rotate(20 98.6861 49.9824)" stroke="black" stroke-width="2"/>
</g>
<g filter="url(#filter5_d_26_992)">
<ellipse cx="59.9779" cy="56.151" rx="10.6599" ry="12.1828" transform="rotate(20 59.9779 56.151)" fill="#5551FF"/>
<ellipse cx="59.9779" cy="56.151" rx="10.6599" ry="12.1828" transform="rotate(20 59.9779 56.151)" fill="url(#paint3_linear_26_992)" style="mix-blend-mode:soft-light"/>
<ellipse cx="59.9779" cy="56.151" rx="10.6599" ry="12.1828" transform="rotate(20 59.9779 56.151)" stroke="black" stroke-width="2"/>
</g>
<g filter="url(#filter6_d_26_992)">
<ellipse cx="76.7606" cy="60.5411" rx="10.6599" ry="12.1828" transform="rotate(20 76.7606 60.5411)" fill="#5551FF"/>
<ellipse cx="76.7606" cy="60.5411" rx="10.6599" ry="12.1828" transform="rotate(20 76.7606 60.5411)" fill="url(#paint4_linear_26_992)" style="mix-blend-mode:soft-light"/>
<ellipse cx="76.7606" cy="60.5411" rx="10.6599" ry="12.1828" transform="rotate(20 76.7606 60.5411)" stroke="black" stroke-width="2"/>
</g>
<g opacity="0.6" filter="url(#filter7_f_26_992)">
<circle cx="75.461" cy="55.2064" r="3.04569" transform="rotate(20 75.461 55.2064)" fill="white"/>
<circle cx="75.461" cy="55.2064" r="3.04569" transform="rotate(20 75.461 55.2064)" stroke="black" stroke-width="2"/>
</g>
<g filter="url(#filter8_d_26_992)">
<ellipse cx="90.939" cy="69.0406" rx="10.6599" ry="12.1828" transform="rotate(20 90.939 69.0406)" fill="#5551FF"/>
<ellipse cx="90.939" cy="69.0406" rx="10.6599" ry="12.1828" transform="rotate(20 90.939 69.0406)" fill="url(#paint5_linear_26_992)" style="mix-blend-mode:soft-light"/>
<ellipse cx="90.939" cy="69.0406" rx="10.6599" ry="12.1828" transform="rotate(20 90.939 69.0406)" stroke="black" stroke-width="2"/>
</g>
<g filter="url(#filter9_d_26_992)">
<ellipse cx="61.3774" cy="74.1331" rx="9.8985" ry="11.4214" transform="rotate(20 61.3774 74.1331)" fill="#5551FF"/>
<ellipse cx="61.3774" cy="74.1331" rx="9.8985" ry="11.4214" transform="rotate(20 61.3774 74.1331)" fill="url(#paint6_linear_26_992)" style="mix-blend-mode:soft-light"/>
<ellipse cx="61.3774" cy="74.1331" rx="9.8985" ry="11.4214" transform="rotate(20 61.3774 74.1331)" stroke="black" stroke-width="2"/>
</g>
<g filter="url(#filter10_d_26_992)">
<ellipse cx="77.1185" cy="79.8623" rx="9.8985" ry="11.4214" transform="rotate(20 77.1185 79.8623)" fill="#5551FF"/>
<ellipse cx="77.1185" cy="79.8623" rx="9.8985" ry="11.4214" transform="rotate(20 77.1185 79.8623)" fill="url(#paint7_linear_26_992)" style="mix-blend-mode:soft-light"/>
<ellipse cx="77.1185" cy="79.8623" rx="9.8985" ry="11.4214" transform="rotate(20 77.1185 79.8623)" stroke="black" stroke-width="2"/>
</g>
<g filter="url(#filter11_d_26_992)">
<ellipse cx="63.3898" cy="90.1633" rx="9.13708" ry="10.6599" transform="rotate(20 63.3898 90.1633)" fill="#5551FF"/>
<ellipse cx="63.3898" cy="90.1633" rx="9.13708" ry="10.6599" transform="rotate(20 63.3898 90.1633)" fill="url(#paint8_linear_26_992)" style="mix-blend-mode:soft-light"/>
<ellipse cx="63.3898" cy="90.1633" rx="9.13708" ry="10.6599" transform="rotate(20 63.3898 90.1633)" stroke="black" stroke-width="2"/>
</g>
<path fill-rule="evenodd" clip-rule="evenodd" d="M93.5318 27.8969C97.6025 30.7472 100.516 28.6983 103.091 29.8766C107.218 31.6541 108.343 35.5305 107.478 40.9309C106.614 46.3313 101.909 58.2402 97.7822 56.4626C96.0541 55.7183 93.2825 50.6318 92.7945 48.5238C87.0411 52.8447 75.7638 56.994 74.0151 55.7696C72.2664 54.5451 72.3085 42.5287 74.401 35.6445C72.2532 35.9069 66.5255 35.0422 65.2351 33.6729C62.1532 30.4027 72.6391 21.2053 76.5138 19.2493C80.3885 17.2932 85.32 16.3207 88.4019 19.5909C89.7236 21.7066 89.4611 25.0466 93.5318 27.8969Z" fill="#2ECC71"/>
<path fill-rule="evenodd" clip-rule="evenodd" d="M93.5318 27.8969C97.6025 30.7472 100.516 28.6983 103.091 29.8766C107.218 31.6541 108.343 35.5305 107.478 40.9309C106.614 46.3313 101.909 58.2402 97.7822 56.4626C96.0541 55.7183 93.2825 50.6318 92.7945 48.5238C87.0411 52.8447 75.7638 56.994 74.0151 55.7696C72.2664 54.5451 72.3085 42.5287 74.401 35.6445C72.2532 35.9069 66.5255 35.0422 65.2351 33.6729C62.1532 30.4027 72.6391 21.2053 76.5138 19.2493C80.3885 17.2932 85.32 16.3207 88.4019 19.5909C89.7236 21.7066 89.4611 25.0466 93.5318 27.8969Z" fill="url(#paint9_linear_26_992)" style="mix-blend-mode:soft-light"/>
<path fill-rule="evenodd" clip-rule="evenodd" d="M93.5318 27.8969C97.6025 30.7472 100.516 28.6983 103.091 29.8766C107.218 31.6541 108.343 35.5305 107.478 40.9309C106.614 46.3313 101.909 58.2402 97.7822 56.4626C96.0541 55.7183 93.2825 50.6318 92.7945 48.5238C87.0411 52.8447 75.7638 56.994 74.0151 55.7696C72.2664 54.5451 72.3085 42.5287 74.401 35.6445C72.2532 35.9069 66.5255 35.0422 65.2351 33.6729C62.1532 30.4027 72.6391 21.2053 76.5138 19.2493C80.3885 17.2932 85.32 16.3207 88.4019 19.5909C89.7236 21.7066 89.4611 25.0466 93.5318 27.8969Z" stroke="black" stroke-width="2"/>
<defs>
<filter id="filter0_d_26_992" x="44.9535" y="22.7327" width="34.7412" height="37.0874" filterUnits="userSpaceOnUse" color-interpolation-filters="sRGB">
<feFlood flood-opacity="0" result="BackgroundImageFix"/>
<feColorMatrix in="SourceAlpha" type="matrix" values="0 0 0 0 0 0 0 0 0 0 0 0 0 0 0 0 0 0 127 0" result="hardAlpha"/>
<feOffset dy="2"/>
<feGaussianBlur stdDeviation="2"/>
<feColorMatrix type="matrix" values="0 0 0 0 0 0 0 0 0 0 0 0 0 0 0 0 0 0 0.1 0"/>
<feBlend mode="normal" in2="BackgroundImageFix" result="effect1_dropShadow_26_992"/>
<feBlend mode="normal" in="SourceGraphic" in2="effect1_dropShadow_26_992" result="shape"/>
</filter>
<filter id="filter1_d_26_992" x="64.5535" y="28.9845" width="32.7477" height="35.08" filterUnits="userSpaceOnUse" color-interpolation-filters="sRGB">
<feFlood flood-opacity="0" result="BackgroundImageFix"/>
<feColorMatrix in="SourceAlpha" type="matrix" values="0 0 0 0 0 0 0 0 0 0 0 0 0 0 0 0 0 0 127 0" result="hardAlpha"/>
<feOffset dy="2"/>
<feGaussianBlur stdDeviation="2"/>
<feColorMatrix type="matrix" values="0 0 0 0 0 0 0 0 0 0 0 0 0 0 0 0 0 0 0.1 0"/>
<feBlend mode="normal" in2="BackgroundImageFix" result="effect1_dropShadow_26_992"/>
<feBlend mode="normal" in="SourceGraphic" in2="effect1_dropShadow_26_992" result="shape"/>
</filter>
<filter id="filter2_f_26_992" x="68.1202" y="28.2027" width="23.926" height="23.926" filterUnits="userSpaceOnUse" color-interpolation-filters="sRGB">
<feFlood flood-opacity="0" result="BackgroundImageFix"/>
<feBlend mode="normal" in="SourceGraphic" in2="BackgroundImageFix" result="shape"/>
<feGaussianBlur stdDeviation="4.07742" result="effect1_foregroundBlur_26_992"/>
</filter>
<filter id="filter3_d_26_992" x="82.1598" y="37.7975" width="34.7412" height="37.0874" filterUnits="userSpaceOnUse" color-interpolation-filters="sRGB">
<feFlood flood-opacity="0" result="BackgroundImageFix"/>
<feColorMatrix in="SourceAlpha" type="matrix" values="0 0 0 0 0 0 0 0 0 0 0 0 0 0 0 0 0 0 127 0" result="hardAlpha"/>
<feOffset dy="2"/>
<feGaussianBlur stdDeviation="2"/>
<feColorMatrix type="matrix" values="0 0 0 0 0 0 0 0 0 0 0 0 0 0 0 0 0 0 0.1 0"/>
<feBlend mode="normal" in2="BackgroundImageFix" result="effect1_dropShadow_26_992"/>
<feBlend mode="normal" in="SourceGraphic" in2="effect1_dropShadow_26_992" result="shape"/>
</filter>
<filter id="filter4_f_26_992" x="85.7228" y="37.0191" width="25.9265" height="25.9265" filterUnits="userSpaceOnUse" color-interpolation-filters="sRGB">
<feFlood flood-opacity="0" result="BackgroundImageFix"/>
<feBlend mode="normal" in="SourceGraphic" in2="BackgroundImageFix" result="shape"/>
<feGaussianBlur stdDeviation="4.07742" result="effect1_foregroundBlur_26_992"/>
</filter>
<filter id="filter5_d_26_992" x="44.1296" y="41.129" width="31.6964" height="34.044" filterUnits="userSpaceOnUse" color-interpolation-filters="sRGB">
<feFlood flood-opacity="0" result="BackgroundImageFix"/>
<feColorMatrix in="SourceAlpha" type="matrix" values="0 0 0 0 0 0 0 0 0 0 0 0 0 0 0 0 0 0 127 0" result="hardAlpha"/>
<feOffset dy="2"/>
<feGaussianBlur stdDeviation="2"/>
<feColorMatrix type="matrix" values="0 0 0 0 0 0 0 0 0 0 0 0 0 0 0 0 0 0 0.1 0"/>
<feBlend mode="normal" in2="BackgroundImageFix" result="effect1_dropShadow_26_992"/>
<feBlend mode="normal" in="SourceGraphic" in2="effect1_dropShadow_26_992" result="shape"/>
</filter>
<filter id="filter6_d_26_992" x="60.9124" y="45.5191" width="31.6964" height="34.044" filterUnits="userSpaceOnUse" color-interpolation-filters="sRGB">
<feFlood flood-opacity="0" result="BackgroundImageFix"/>
<feColorMatrix in="SourceAlpha" type="matrix" values="0 0 0 0 0 0 0 0 0 0 0 0 0 0 0 0 0 0 127 0" result="hardAlpha"/>
<feOffset dy="2"/>
<feGaussianBlur stdDeviation="2"/>
<feColorMatrix type="matrix" values="0 0 0 0 0 0 0 0 0 0 0 0 0 0 0 0 0 0 0.1 0"/>
<feBlend mode="normal" in2="BackgroundImageFix" result="effect1_dropShadow_26_992"/>
<feBlend mode="normal" in="SourceGraphic" in2="effect1_dropShadow_26_992" result="shape"/>
</filter>
<filter id="filter7_f_26_992" x="63.2593" y="43.0048" width="24.4032" height="24.4033" filterUnits="userSpaceOnUse" color-interpolation-filters="sRGB">
<feFlood flood-opacity="0" result="BackgroundImageFix"/>
<feBlend mode="normal" in="SourceGraphic" in2="BackgroundImageFix" result="shape"/>
<feGaussianBlur stdDeviation="4.07742" result="effect1_foregroundBlur_26_992"/>
</filter>
<filter id="filter8_d_26_992" x="75.0908" y="54.0186" width="31.6964" height="34.044" filterUnits="userSpaceOnUse" color-interpolation-filters="sRGB">
<feFlood flood-opacity="0" result="BackgroundImageFix"/>
<feColorMatrix in="SourceAlpha" type="matrix" values="0 0 0 0 0 0 0 0 0 0 0 0 0 0 0 0 0 0 127 0" result="hardAlpha"/>
<feOffset dy="2"/>
<feGaussianBlur stdDeviation="2"/>
<feColorMatrix type="matrix" values="0 0 0 0 0 0 0 0 0 0 0 0 0 0 0 0 0 0 0.1 0"/>
<feBlend mode="normal" in2="BackgroundImageFix" result="effect1_dropShadow_26_992"/>
<feBlend mode="normal" in="SourceGraphic" in2="effect1_dropShadow_26_992" result="shape"/>
</filter>
<filter id="filter9_d_26_992" x="46.2903" y="59.8718" width="30.1743" height="32.5226" filterUnits="userSpaceOnUse" color-interpolation-filters="sRGB">
<feFlood flood-opacity="0" result="BackgroundImageFix"/>
<feColorMatrix in="SourceAlpha" type="matrix" values="0 0 0 0 0 0 0 0 0 0 0 0 0 0 0 0 0 0 127 0" result="hardAlpha"/>
<feOffset dy="2"/>
<feGaussianBlur stdDeviation="2"/>
<feColorMatrix type="matrix" values="0 0 0 0 0 0 0 0 0 0 0 0 0 0 0 0 0 0 0.1 0"/>
<feBlend mode="normal" in2="BackgroundImageFix" result="effect1_dropShadow_26_992"/>
<feBlend mode="normal" in="SourceGraphic" in2="effect1_dropShadow_26_992" result="shape"/>
</filter>
<filter id="filter10_d_26_992" x="62.0314" y="65.601" width="30.1743" height="32.5226" filterUnits="userSpaceOnUse" color-interpolation-filters="sRGB">
<feFlood flood-opacity="0" result="BackgroundImageFix"/>
<feColorMatrix in="SourceAlpha" type="matrix" values="0 0 0 0 0 0 0 0 0 0 0 0 0 0 0 0 0 0 127 0" result="hardAlpha"/>
<feOffset dy="2"/>
<feGaussianBlur stdDeviation="2"/>
<feColorMatrix type="matrix" values="0 0 0 0 0 0 0 0 0 0 0 0 0 0 0 0 0 0 0.1 0"/>
<feBlend mode="normal" in2="BackgroundImageFix" result="effect1_dropShadow_26_992"/>
<feBlend mode="normal" in="SourceGraphic" in2="effect1_dropShadow_26_992" result="shape"/>
</filter>
<filter id="filter11_d_26_992" x="49.0637" y="76.6626" width="28.6523" height="31.0015" filterUnits="userSpaceOnUse" color-interpolation-filters="sRGB">
<feFlood flood-opacity="0" result="BackgroundImageFix"/>
<feColorMatrix in="SourceAlpha" type="matrix" values="0 0 0 0 0 0 0 0 0 0 0 0 0 0 0 0 0 0 127 0" result="hardAlpha"/>
<feOffset dy="2"/>
<feGaussianBlur stdDeviation="2"/>
<feColorMatrix type="matrix" values="0 0 0 0 0 0 0 0 0 0 0 0 0 0 0 0 0 0 0.1 0"/>
<feBlend mode="normal" in2="BackgroundImageFix" result="effect1_dropShadow_26_992"/>
<feBlend mode="normal" in="SourceGraphic" in2="effect1_dropShadow_26_992" result="shape"/>
</filter>
<linearGradient id="paint0_linear_26_992" x1="50.1413" y1="25.5708" x2="50.1413" y2="52.982" gradientUnits="userSpaceOnUse">
<stop stop-color="white" stop-opacity="0"/>
<stop offset="1" stop-opacity="0.5"/>
</linearGradient>
<linearGradient id="paint1_linear_26_992" x1="68.7446" y1="30.8189" x2="68.7446" y2="58.2301" gradientUnits="userSpaceOnUse">
<stop stop-color="white" stop-opacity="0"/>
<stop offset="1" stop-opacity="0.5"/>
</linearGradient>
<linearGradient id="paint2_linear_26_992" x1="87.3476" y1="40.6356" x2="87.3476" y2="68.0468" gradientUnits="userSpaceOnUse">
<stop stop-color="white" stop-opacity="0"/>
<stop offset="1" stop-opacity="0.5"/>
</linearGradient>
<linearGradient id="paint3_linear_26_992" x1="49.3179" y1="43.9682" x2="49.3179" y2="68.3338" gradientUnits="userSpaceOnUse">
<stop stop-color="white" stop-opacity="0"/>
<stop offset="1" stop-opacity="0.5"/>
</linearGradient>
<linearGradient id="paint4_linear_26_992" x1="66.1007" y1="48.3583" x2="66.1007" y2="72.7239" gradientUnits="userSpaceOnUse">
<stop stop-color="white" stop-opacity="0"/>
<stop offset="1" stop-opacity="0.5"/>
</linearGradient>
<linearGradient id="paint5_linear_26_992" x1="80.2791" y1="56.8578" x2="80.2791" y2="81.2234" gradientUnits="userSpaceOnUse">
<stop stop-color="white" stop-opacity="0"/>
<stop offset="1" stop-opacity="0.5"/>
</linearGradient>
<linearGradient id="paint6_linear_26_992" x1="51.4789" y1="62.7117" x2="51.4789" y2="85.5544" gradientUnits="userSpaceOnUse">
<stop stop-color="white" stop-opacity="0"/>
<stop offset="1" stop-opacity="0.5"/>
</linearGradient>
<linearGradient id="paint7_linear_26_992" x1="67.22" y1="68.441" x2="67.22" y2="91.2837" gradientUnits="userSpaceOnUse">
<stop stop-color="white" stop-opacity="0"/>
<stop offset="1" stop-opacity="0.5"/>
</linearGradient>
<linearGradient id="paint8_linear_26_992" x1="54.2528" y1="79.5034" x2="54.2528" y2="100.823" gradientUnits="userSpaceOnUse">
<stop stop-color="white" stop-opacity="0"/>
<stop offset="1" stop-opacity="0.5"/>
</linearGradient>
<linearGradient id="paint9_linear_26_992" x1="35.6686" y1="13.8025" x2="62.6748" y2="72.3678" gradientUnits="userSpaceOnUse">
<stop stop-color="white" stop-opacity="0.5"/>
<stop offset="1" stop-opacity="0.5"/>
</linearGradient>
</defs>
</svg>
