<svg width="125" height="96" viewBox="0 0 154 119" fill="none" xmlns="http://www.w3.org/2000/svg">
<rect width="154" height="119" fill="#EFEFEF"/>
<path d="M90.7499 48.0139V48.5864L91.2435 48.8762C99.4645 53.7036 105 62.7281 105 73.0714C105 88.5106 92.6738 101 77.4999 101C62.326 101 49.9998 88.5106 50 73.0714C50 62.7279 55.5354 53.7034 63.7563 48.8761L64.25 48.5862V48.0137V22H90.7499V48.0139Z" fill="#EFEFEF" stroke="black" stroke-width="2"/>
<path d="M59 17H96V27H59V17Z" fill="#EFEFEF" stroke="black" stroke-width="2"/>
<path d="M97.45 68.3333H105.018C105.334 70.0163 105.5 71.7524 105.5 73.5277C105.5 88.9765 92.9645 101.5 77.5 101.5C62.0355 101.5 49.5 88.9765 49.5 73.5277C49.5 71.7524 49.6659 70.0163 49.9823 68.3333H57.55C60.1052 68.3333 62.0405 67.8949 63.6628 67.2281C65.2703 66.5673 66.5539 65.688 67.7921 64.8397L67.8076 64.8292C69.0583 63.9723 70.2644 63.1479 71.7674 62.5302C73.2623 61.9157 75.0677 61.5 77.5 61.5C79.9323 61.5 81.7377 61.9157 83.2326 62.5302C84.7356 63.1479 85.9417 63.9723 87.1925 64.8292L87.208 64.8398C88.4462 65.688 89.7298 66.5673 91.3373 67.2281C92.9596 67.8949 94.8949 68.3333 97.45 68.3333Z" fill="#D80027" stroke="black"/>
<path d="M104.71 68.46H96.9699C92.1125 68.2488 89.6511 66.5855 87.2271 64.9473C84.7157 63.2501 82.2444 61.58 77.1899 61.58C77.1899 64.5564 76.9037 71.739 76.6008 79.3375C76.2608 87.8696 75.8999 96.926 75.8999 101.14C92.2399 102.43 105.14 87.81 105.14 74.05C105.14 72.1683 105.082 70.2355 104.71 68.46Z" fill="#FF8577"/>
<path d="M104.71 68.46H96.9699C92.1125 68.2488 89.6511 66.5855 87.2271 64.9473C84.7157 63.2501 82.2444 61.58 77.1899 61.58C77.1899 64.5564 76.9037 71.739 76.6008 79.3375C76.2608 87.8696 75.8999 96.926 75.8999 101.14C92.2399 102.43 105.14 87.81 105.14 74.05C105.14 72.1683 105.082 70.2355 104.71 68.46Z" stroke="black"/>
<path d="M64.3974 81.0734C67.544 81.0734 70.0948 78.5065 70.0948 75.3401C70.0948 72.1737 67.544 69.6068 64.3974 69.6068C61.2508 69.6068 58.7 72.1737 58.7 75.3401C58.7 78.5065 61.2508 81.0734 64.3974 81.0734Z" fill="#FF8577"/>
<path d="M64.3974 81.0734C67.544 81.0734 70.0948 78.5065 70.0948 75.3401C70.0948 72.1737 67.544 69.6068 64.3974 69.6068C61.2508 69.6068 58.7 72.1737 58.7 75.3401C58.7 78.5065 61.2508 81.0734 64.3974 81.0734Z" stroke="black"/>
<path d="M90.5206 90.5333C94.4787 90.5333 97.6874 87.3246 97.6874 83.3665C97.6874 79.4084 94.4787 76.1998 90.5206 76.1998C86.5626 76.1998 83.3539 79.4084 83.3539 83.3665C83.3539 87.3246 86.5626 90.5333 90.5206 90.5333Z" fill="#D80027"/>
<path d="M74.7538 53.2662C77.9202 53.2662 80.4871 50.6993 80.4871 47.5329C80.4871 44.3665 77.9202 41.7996 74.7538 41.7996C71.5874 41.7996 69.0205 44.3665 69.0205 47.5329C69.0205 50.6993 71.5874 53.2662 74.7538 53.2662Z" fill="#D80027"/>
<path d="M83 38C84.6569 38 86 36.8807 86 35.5C86 34.1193 84.6569 33 83 33C81.3431 33 80 34.1193 80 35.5C80 36.8807 81.3431 38 83 38Z" fill="#FF8577"/>
</svg>
