<svg width="125" height="96" viewBox="0 0 154 119" fill="none" xmlns="http://www.w3.org/2000/svg">
<rect width="154" height="119" fill="#EFEFEF"/>
<path fill-rule="evenodd" clip-rule="evenodd" d="M41.3731 58.5537C41.3731 76.264 55.7298 90.6222 73.4417 90.6222C91.1535 90.6222 105.51 76.264 105.51 58.5537C105.51 40.8418 91.1535 26.4836 73.4417 26.4836C55.7298 26.4836 41.3731 40.8418 41.3731 58.5537" fill="#FFC700"/>
<path fill-rule="evenodd" clip-rule="evenodd" d="M72.7989 39.3558L74.3475 56.0552L61.9468 66.0342L48.1922 61.6622L47.7234 44.1189L59.8956 34.4886L72.7989 39.3558" fill="black"/>
<path fill-rule="evenodd" clip-rule="evenodd" d="M50.3912 84.5236C43.7601 77.7211 39.9478 68.3282 40.0006 58.8767C40.0284 63.609 40.9764 68.3282 42.8063 72.6854C44.2787 76.19 46.3475 79.4265 48.844 82.2761L62.3759 86.4825L66.2175 92.9847C66.0622 92.9759 65.9156 92.9451 65.7633 92.9334C69.1389 93.8945 72.6464 94.359 76.1407 94.2798C85.4369 94.1333 94.4635 90.1277 100.802 83.5376C107.192 76.9958 110.864 67.9736 110.816 58.8767C110.851 52.4829 109.044 46.1257 105.749 40.6403L101.748 41.7172C101.742 42.8585 101.758 44.0028 101.736 45.1441C101.668 47.6934 101.624 50.2588 101.269 52.7862C101.134 50.25 100.692 47.7535 100.276 45.254C100.072 44.0877 99.8288 42.9288 99.6076 41.7626L86.946 34.3447L77.4608 36.2787L85.0369 32.4342L80.1273 24.6588L81.2393 23.9453L81.3419 23.9497C79.6292 23.6581 77.8886 23.494 76.1407 23.4662C66.8621 23.2596 57.4809 26.8755 50.7297 33.4671C47.3731 36.7592 44.6348 40.7121 42.8048 45.0679C40.9764 49.4237 40.0284 54.1458 40.0006 58.8767C39.9464 49.4017 43.7806 39.9854 50.4425 33.1785C57.0458 26.3158 66.4651 22.152 76.1407 22.0084C85.7988 21.7974 95.5653 25.5789 102.585 32.4327C106.078 35.8596 108.92 39.9752 110.829 44.5082C112.732 49.0413 113.717 53.9583 113.745 58.8767C113.723 63.7966 112.732 68.7135 110.83 73.2466C108.93 77.7841 106.08 81.8967 102.589 85.325C95.5726 92.1877 85.7988 95.9647 76.1407 95.7523C70.0649 95.6615 64.0901 93.9839 58.8494 91.0493C55.0181 89.2135 52.1259 86.4737 50.3912 84.5236" fill="black"/>
<path d="M50.3912 84.5236C43.7601 77.7211 39.9478 68.3282 40.0006 58.8767C40.0284 63.609 40.9764 68.3282 42.8063 72.6854C44.2787 76.19 46.3475 79.4265 48.844 82.2761L62.3759 86.4825L66.2175 92.9847C66.0622 92.9759 65.9156 92.9451 65.7633 92.9334C69.1389 93.8945 72.6464 94.359 76.1407 94.2798C85.4369 94.1333 94.4635 90.1277 100.802 83.5376C107.192 76.9958 110.864 67.9736 110.816 58.8767C110.851 52.4829 109.044 46.1257 105.749 40.6403L101.748 41.7172C101.742 42.8585 101.758 44.0028 101.736 45.1441C101.668 47.6934 101.624 50.2588 101.269 52.7862C101.134 50.25 100.692 47.7535 100.276 45.254C100.072 44.0877 99.8288 42.9288 99.6076 41.7626L86.946 34.3447L77.4608 36.2787L85.0369 32.4342L80.1273 24.6588L81.2393 23.9453L81.3419 23.9497C79.6292 23.6581 77.8886 23.494 76.1407 23.4662C66.8621 23.2596 57.4809 26.8755 50.7297 33.4671C47.3731 36.7592 44.6348 40.7121 42.8048 45.0679C40.9764 49.4237 40.0284 54.1458 40.0006 58.8767C39.9464 49.4017 43.7806 39.9854 50.4425 33.1785C57.0458 26.3158 66.4651 22.152 76.1407 22.0084C85.7988 21.7974 95.5653 25.5789 102.585 32.4327C106.078 35.8596 108.92 39.9752 110.829 44.5082C112.732 49.0413 113.717 53.9583 113.745 58.8767C113.723 63.7966 112.732 68.7135 110.83 73.2466C108.93 77.7841 106.08 81.8967 102.589 85.325C95.5726 92.1877 85.7988 95.9647 76.1407 95.7523C70.0649 95.6615 64.0901 93.9839 58.8494 91.0493C55.0181 89.2135 52.1259 86.4737 50.3912 84.5236" stroke="black"/>
<path fill-rule="evenodd" clip-rule="evenodd" d="M72.7001 79.9285C74.1755 79.7351 75.6435 79.4889 77.1072 79.2164C79.488 78.7593 81.8615 78.2275 84.213 77.659L87.8099 65.7563L77.8837 57.0609L89.4567 63.8532L101.973 58.1172L108.135 64.7498L103.154 78.5073L91.6793 86.4512L91.6456 86.4219L89.2662 90.0319L90.5394 85.5106L84.2276 80.3123C81.904 80.4793 79.5861 80.6097 77.2595 80.6727C75.7505 80.705 74.2399 80.7108 72.7308 80.6596C71.2276 80.5863 69.6966 80.5043 68.249 80.0882C69.7391 80.261 71.2247 80.097 72.7001 79.9285Z" fill="black"/>
</svg>
