<svg width="125" height="96" viewBox="0 0 154 119" fill="none" xmlns="http://www.w3.org/2000/svg">
<rect width="154" height="119" fill="#EFEFEF"/>
<path d="M86.1353 75.2488V77.5452L86.4558 79.4945L34.386 85.6894L32.7571 89.0005L17.5634 75.0085L15 21.6036C15 21.6036 15.8545 15.7824 16.1215 13.94C16.3885 12.0708 19.0321 11.6702 19.0321 11.6702L29.8466 11.243L40.1537 12.1776L50.4609 10.976C50.8881 9.77437 51.6625 9.74767 51.6625 9.74767L62.477 9L84.3463 10.4953L36.3887 13.6195C36.3887 13.6195 33.9854 12.765 34.4127 18.3726C34.8399 23.9801 38.5783 82.1113 38.5783 82.1113C38.5783 82.1113 37.6437 83.3396 42.1564 82.7789C46.6424 82.1914 86.1353 75.2488 86.1353 75.2488Z" fill="#5551FF" stroke="#5551FF" stroke-width="3" stroke-miterlimit="10" stroke-linecap="round" stroke-linejoin="round"/>
<path d="M86.1353 75.2488V77.5452" stroke="#00B4F2" stroke-width="3.8573" stroke-miterlimit="10" stroke-linecap="round" stroke-linejoin="round"/>
<path d="M42.4502 54.0737V57.5183C42.4502 57.5183 42.3434 58.7734 44.1591 58.5597C46.0016 58.3194 83.4117 52.8454 83.4117 52.8454C83.4117 52.8454 84.3196 53.4062 84.3196 51.5904C84.3196 49.7746 82.9578 17.705 82.9578 17.705L40.6344 21.3632V24.5675" stroke="black" stroke-width="3.8573" stroke-miterlimit="10" stroke-linecap="round" stroke-linejoin="round"/>
<path d="M64.7734 65.6359L82.5039 62.7787" stroke="black" stroke-width="3.8573" stroke-miterlimit="10" stroke-linecap="round" stroke-linejoin="round"/>
<path d="M77.4838 61.2834V65.6359L82.9845 64.728V60.4823L77.4838 61.2834Z" stroke="#5551FF" stroke-width="3.8573" stroke-miterlimit="10" stroke-linecap="round" stroke-linejoin="round"/>
<path d="M36.3887 17.6783L40.6344 80.1888L88.8056 71.6974L86.1887 13.9133L36.3887 17.6783Z" stroke="black" stroke-width="3.8573" stroke-miterlimit="10" stroke-linecap="round" stroke-linejoin="round"/>
<path d="M86.1887 13.9133C86.1887 13.9133 86.2421 11.4299 85.4678 10.7891C84.6934 10.1482 81.3556 10.5755 81.3556 10.5755L36.3886 13.6195C36.3886 13.6195 34.3593 13.5394 34.3593 15.8892C34.3593 18.2391 38.5515 82.1113 38.5515 82.1113C38.5515 82.1113 38.6584 83.4197 40.6076 83.2061C42.5569 82.9925 87.0699 75.0886 87.0699 75.0886C87.0699 75.0886 88.9391 75.0352 88.7788 71.7241" stroke="black" stroke-width="2" stroke-miterlimit="10" stroke-linecap="round" stroke-linejoin="round"/>
<path d="M35.9615 17.6783L34.4127 15.4353" stroke="black" stroke-width="3.8573" stroke-miterlimit="10" stroke-linecap="round" stroke-linejoin="round"/>
<path d="M17.777 13.219L35.0534 15.2217" stroke="white" stroke-width="3.8573" stroke-miterlimit="10" stroke-linecap="round" stroke-linejoin="round"/>
<path d="M33.6382 86.6774C33.6382 86.6774 32.7837 87.6654 32.944 90.1221C33.1042 92.5787 40.1536 100.216 42.3966 104.007C44.6396 107.772 46.7758 108.547 48.0575 108.654C49.3393 108.76 117.938 95.3557 117.938 95.3557C117.938 95.3557 118.926 94.528 119.406 92.6855C119.887 90.843 119.887 90.843 119.887 90.843" stroke="black" stroke-width="3.8573" stroke-miterlimit="10" stroke-linecap="round" stroke-linejoin="round"/>
<path d="M117.324 94.1274L51.6891 106.357C51.6891 106.357 48.0576 107.692 46.135 105.342C44.1857 103.019 36.0148 91.3771 36.0148 91.3771" stroke="black" stroke-width="3.8573" stroke-miterlimit="10" stroke-linecap="round" stroke-linejoin="round"/>
<path d="M89.2595 72.7655C89.2595 72.7655 96.1221 70.202 104.293 73.9671C112.464 77.7321 113.639 77.9991 116.042 78.4264C118.445 78.8536 120.341 80.162 120.341 80.162" stroke="black" stroke-width="2" stroke-miterlimit="10" stroke-linecap="round" stroke-linejoin="round"/>
<path d="M127.898 79.3876L117.858 80.8563C117.858 80.8563 116.736 81.6306 116.576 83.2595C116.416 84.8883 116.576 86.1701 116.576 86.1701C116.576 86.1701 126.536 92.7923 126.803 92.8724C127.07 92.9525 128.272 93.2195 132.544 92.365C136.843 91.5106 137.778 91.4304 138.472 90.5493C138.472 90.5493 139.327 90.0419 138.979 87.3717C138.979 87.3717 139.487 86.8643 135.214 83.847C130.942 80.8296 130.088 79.0672 127.898 79.3876Z" fill="black" stroke="black" stroke-width="3.8573" stroke-miterlimit="10" stroke-linecap="round" stroke-linejoin="round"/>
<path d="M117.671 82.2181C117.671 82.2181 119.059 81.4438 120.208 82.2181C121.356 82.9925 127.097 88.2262 128.085 88.7335C129.073 89.2409 138.339 87.4518 138.339 87.4518" stroke="white" stroke-width="3.8573" stroke-miterlimit="10" stroke-linecap="round" stroke-linejoin="round"/>
<path d="M41.6004 24.2172L43.3846 53.8918C43.3846 53.8918 43.488 56.065 46.3839 55.7431C49.254 55.3943 67.3279 54.3747 79.0669 50.8062C79.0669 50.8062 80.7217 50.1086 80.9544 47.0231C81.1872 43.9376 80.9545 25.6392 79.8426 21.2658C79.8426 21.2658 79.8426 19.1998 76.8432 19.0925C73.8438 18.9852 47.8061 21.2658 43.2553 22.3122C43.2553 22.2585 41.5229 23.0634 41.6004 24.2172Z" stroke="#5551FF" stroke-width="3" stroke-miterlimit="10" stroke-linecap="round" stroke-linejoin="round"/>
<path d="M34.386 86.3303L100.074 75.2488C100.074 75.2488 102.05 74.2074 104.453 76.7174C106.856 79.2007 119.567 90.2021 119.567 90.2021C119.567 90.2021 121.035 91.1367 117.858 91.831C114.68 92.5253 49.6865 105.209 49.6865 105.209L34.386 86.3303Z" fill="white" stroke="#5551FF" stroke-width="3" stroke-miterlimit="10" stroke-linecap="round" stroke-linejoin="round"/>
<path d="M99.3797 75.3823L100.768 76.8509V77.9457H102.023L103.465 79.3343V80.1887L105.575 81.3102V82.2448L108.272 83.2328L108.939 86.1434L107.123 86.6774L107.551 88.8136L56.4689 99.0407L54.1725 96.5306L49.7933 97.305L42.1564 87.6921L43.4381 84.8083" stroke="black" stroke-width="1.5" stroke-miterlimit="10" stroke-linecap="round" stroke-linejoin="round"/>
<path d="M43.5984 85.5025L44.8534 86.9178L47.1498 86.6774" stroke="black" stroke-width="1.5" stroke-miterlimit="10" stroke-linecap="round" stroke-linejoin="round"/>
<path d="M47.6571 84.3009L48.9922 86.1434L51.2085 85.8497" stroke="black" stroke-width="1.5" stroke-miterlimit="10" stroke-linecap="round" stroke-linejoin="round"/>
<path d="M51.9027 83.6067L53.3179 85.3423L55.1871 85.1554" stroke="black" stroke-width="1.5" stroke-miterlimit="10" stroke-linecap="round" stroke-linejoin="round"/>
<path d="M56.1218 83.0192L57.5638 84.8083L59.2727 84.5413" stroke="black" stroke-width="1.5" stroke-miterlimit="10" stroke-linecap="round" stroke-linejoin="round"/>
<path d="M59.9403 82.0045L61.5959 84.0339L63.8389 83.6067" stroke="black" stroke-width="1.5" stroke-miterlimit="10" stroke-linecap="round" stroke-linejoin="round"/>
<path d="M64.1592 81.3102L65.6011 83.2328L67.9509 82.8323" stroke="black" stroke-width="1.5" stroke-miterlimit="10" stroke-linecap="round" stroke-linejoin="round"/>
<path d="M68.1913 80.6427L69.7934 82.5119L72.0898 82.0045" stroke="black" stroke-width="1.5" stroke-miterlimit="10" stroke-linecap="round" stroke-linejoin="round"/>
<path d="M72.3035 79.9484L73.7187 81.8977L76.0418 81.5773" stroke="black" stroke-width="1.5" stroke-miterlimit="10" stroke-linecap="round" stroke-linejoin="round"/>
<path d="M76.0417 79.3076L77.6439 81.1768L80.0471 80.6427" stroke="black" stroke-width="1.5" stroke-miterlimit="10" stroke-linecap="round" stroke-linejoin="round"/>
<path d="M80.0472 78.64L81.6227 80.349L83.8657 79.9485" stroke="black" stroke-width="1.5" stroke-miterlimit="10" stroke-linecap="round" stroke-linejoin="round"/>
<path d="M83.9991 77.9724L85.4144 79.6547L87.7642 79.3076" stroke="black" stroke-width="1.5" stroke-miterlimit="10" stroke-linecap="round" stroke-linejoin="round"/>
<path d="M87.8442 77.3049L89.2595 79.1207L91.5559 78.8002" stroke="black" stroke-width="1.5" stroke-miterlimit="10" stroke-linecap="round" stroke-linejoin="round"/>
<path d="M91.4758 76.7174L92.8376 78.373L95.1341 77.9725" stroke="black" stroke-width="1.5" stroke-miterlimit="10" stroke-linecap="round" stroke-linejoin="round"/>
<path d="M95.3744 76.13L96.7362 77.6788L100.528 76.9044" stroke="black" stroke-width="1.5" stroke-miterlimit="10" stroke-linecap="round" stroke-linejoin="round"/>
<path d="M45.3607 88.0927L46.5623 89.5079L51.2085 88.7869" stroke="black" stroke-width="1.5" stroke-miterlimit="10" stroke-linecap="round" stroke-linejoin="round"/>
<path d="M51.9027 86.9178L53.0509 88.333L55.7479 88.0927" stroke="black" stroke-width="1.5" stroke-miterlimit="10" stroke-linecap="round" stroke-linejoin="round"/>
<path d="M56.4423 86.4905L57.4303 87.6387L59.9403 87.2115" stroke="black" stroke-width="1.5" stroke-miterlimit="10" stroke-linecap="round" stroke-linejoin="round"/>
<path d="M60.501 85.6895L61.5958 86.9178L63.8388 86.4639" stroke="black" stroke-width="1.5" stroke-miterlimit="10" stroke-linecap="round" stroke-linejoin="round"/>
<path d="M64.5063 84.8083L65.7881 86.1434L68.1913 85.7696" stroke="black" stroke-width="1.5" stroke-miterlimit="10" stroke-linecap="round" stroke-linejoin="round"/>
<path d="M68.4049 84.0339L69.8735 85.4758L72.0898 85.0486" stroke="black" stroke-width="1.5" stroke-miterlimit="10" stroke-linecap="round" stroke-linejoin="round"/>
<path d="M72.5171 83.2328L73.9056 84.7549L76.4156 84.3009" stroke="black" stroke-width="1.5" stroke-miterlimit="10" stroke-linecap="round" stroke-linejoin="round"/>
<path d="M76.4156 82.5119L77.8042 84.0339L80.2341 83.6067" stroke="black" stroke-width="1.5" stroke-miterlimit="10" stroke-linecap="round" stroke-linejoin="round"/>
<path d="M80.421 82.0045L81.9431 83.2862L83.9992 83.0192" stroke="black" stroke-width="1.5" stroke-miterlimit="10" stroke-linecap="round" stroke-linejoin="round"/>
<path d="M84.2661 81.1768L85.708 82.6454L88.0312 82.2449" stroke="black" stroke-width="1.5" stroke-miterlimit="10" stroke-linecap="round" stroke-linejoin="round"/>
<path d="M88.1381 80.4825L89.4999 81.871L91.8764 81.4438" stroke="black" stroke-width="1.5" stroke-miterlimit="10" stroke-linecap="round" stroke-linejoin="round"/>
<path d="M92.0366 79.8149L93.2916 81.1768L95.588 80.9097" stroke="black" stroke-width="1.5" stroke-miterlimit="10" stroke-linecap="round" stroke-linejoin="round"/>
<path d="M95.6948 79.1207L97.1367 80.4825L99.1928 80.1888" stroke="black" stroke-width="1.5" stroke-miterlimit="10" stroke-linecap="round" stroke-linejoin="round"/>
<path d="M99.353 78.64L100.768 79.9485L103.465 79.3343" stroke="black" stroke-width="1.5" stroke-miterlimit="10" stroke-linecap="round" stroke-linejoin="round"/>
<path d="M47.3099 90.6561L48.4581 91.8844L54.306 90.8964" stroke="black" stroke-width="1.5" stroke-miterlimit="10" stroke-linecap="round" stroke-linejoin="round"/>
<path d="M55.0002 89.1608L56.1218 90.4158L58.6585 89.9352" stroke="black" stroke-width="1.5" stroke-miterlimit="10" stroke-linecap="round" stroke-linejoin="round"/>
<path d="M59.2727 88.6L60.501 89.6414L62.8775 89.1608" stroke="black" stroke-width="1.5" stroke-miterlimit="10" stroke-linecap="round" stroke-linejoin="round"/>
<path d="M63.4916 87.799C63.545 87.9058 64.6665 88.8136 64.6665 88.8136L67.043 88.3597" stroke="black" stroke-width="1.5" stroke-miterlimit="10" stroke-linecap="round" stroke-linejoin="round"/>
<path d="M67.7373 87.2115L68.9656 88.2796L71.3688 87.7989" stroke="black" stroke-width="1.5" stroke-miterlimit="10" stroke-linecap="round" stroke-linejoin="round"/>
<path d="M71.7159 86.3036L72.7573 87.345L75.2941 87.0513" stroke="black" stroke-width="1.5" stroke-miterlimit="10" stroke-linecap="round" stroke-linejoin="round"/>
<path d="M75.5344 85.4759L76.9763 86.6775L79.3262 86.1434" stroke="black" stroke-width="1.5" stroke-miterlimit="10" stroke-linecap="round" stroke-linejoin="round"/>
<path d="M79.9137 85.0486L81.142 86.0633L83.2782 85.6894" stroke="black" stroke-width="1.5" stroke-miterlimit="10" stroke-linecap="round" stroke-linejoin="round"/>
<path d="M83.5452 84.2208L84.9337 85.2355L87.2301 84.8083" stroke="black" stroke-width="1.5" stroke-miterlimit="10" stroke-linecap="round" stroke-linejoin="round"/>
<path d="M87.7642 83.4999L88.8056 84.5146L91.0219 84.2208" stroke="black" stroke-width="1.5" stroke-miterlimit="10" stroke-linecap="round" stroke-linejoin="round"/>
<path d="M91.3157 82.7789L92.4906 83.7402L94.8404 83.4999" stroke="black" stroke-width="1.5" stroke-miterlimit="10" stroke-linecap="round" stroke-linejoin="round"/>
<path d="M95.134 82.0045L96.3356 83.0192L98.6588 82.6454" stroke="black" stroke-width="1.5" stroke-miterlimit="10" stroke-linecap="round" stroke-linejoin="round"/>
<path d="M99.2729 81.5773L100.314 82.5119L104.24 81.871" stroke="black" stroke-width="1.5" stroke-miterlimit="10" stroke-linecap="round" stroke-linejoin="round"/>
<path d="M49.6865 92.9525L50.808 93.9672L58.6585 92.552" stroke="black" stroke-width="1.5" stroke-miterlimit="10" stroke-linecap="round" stroke-linejoin="round"/>
<path d="M59.2727 91.2703L60.501 92.0713L62.8775 91.6708" stroke="black" stroke-width="1.5" stroke-miterlimit="10" stroke-linecap="round" stroke-linejoin="round"/>
<path d="M63.4916 90.6561L64.7733 91.2703L67.043 90.9498" stroke="black" stroke-width="1.5" stroke-miterlimit="10" stroke-linecap="round" stroke-linejoin="round"/>
<path d="M67.9509 89.6414L69.0457 90.4158L71.1552 90.042" stroke="black" stroke-width="1.5" stroke-miterlimit="10" stroke-linecap="round" stroke-linejoin="round"/>
<path d="M71.9296 89.1074L73.0778 89.8016L75.2941 89.4545" stroke="black" stroke-width="1.5" stroke-miterlimit="10" stroke-linecap="round" stroke-linejoin="round"/>
<path d="M76.0417 88.2796L77.1366 88.8137L79.6199 88.333" stroke="black" stroke-width="1.5" stroke-miterlimit="10" stroke-linecap="round" stroke-linejoin="round"/>
<path d="M80.234 87.345L81.5958 88.333L83.5451 87.7989" stroke="black" stroke-width="1.5" stroke-miterlimit="10" stroke-linecap="round" stroke-linejoin="round"/>
<path d="M84.4264 86.6774L85.3877 87.4785L87.4705 87.078" stroke="black" stroke-width="1.5" stroke-miterlimit="10" stroke-linecap="round" stroke-linejoin="round"/>
<path d="M88.1381 85.8497L89.2596 86.4906L91.556 86.2235" stroke="black" stroke-width="1.5" stroke-miterlimit="10" stroke-linecap="round" stroke-linejoin="round"/>
<path d="M92.0366 85.0486L93.2916 85.8497L95.3744 85.4758" stroke="black" stroke-width="1.5" stroke-miterlimit="10" stroke-linecap="round" stroke-linejoin="round"/>
<path d="M95.9084 84.3009L97.2169 85.0486L99.1928 84.7282" stroke="black" stroke-width="1.5" stroke-miterlimit="10" stroke-linecap="round" stroke-linejoin="round"/>
<path d="M99.8337 83.6067C99.9673 83.7135 101.115 84.4612 101.115 84.4612L108.111 83.4732" stroke="black" stroke-width="1.5" stroke-miterlimit="10" stroke-linecap="round" stroke-linejoin="round"/>
<path d="M55.7479 94.6882L57.0297 96.2903L59.9402 95.8631" stroke="black" stroke-width="1.5" stroke-miterlimit="10" stroke-linecap="round" stroke-linejoin="round"/>
<path d="M60.1805 93.9672L61.5958 95.2222L66.3488 94.3144" stroke="black" stroke-width="1.5" stroke-miterlimit="10" stroke-linecap="round" stroke-linejoin="round"/>
<path d="M66.7227 92.552L68.1913 93.9672L97.11 88.6" stroke="#5551FF" stroke-width="1.5" stroke-miterlimit="10" stroke-linecap="round" stroke-linejoin="round"/>
<path d="M97.1101 86.8377L98.4452 88.0927L103.011 87.4518" stroke="black" stroke-width="1.5" stroke-miterlimit="10" stroke-linecap="round" stroke-linejoin="round"/>
<path d="M103.011 85.6895L104.507 87.2115L107.123 86.6775" stroke="black" stroke-width="1.5" stroke-miterlimit="10" stroke-linecap="round" stroke-linejoin="round"/>
</svg>
